# Blender 4.4.1
# www.blender.org
mtllib skydome.mtl
o 球
v 0.000000 0.831470 0.555570
v 0.000000 0.555570 0.831470
v 0.000000 0.195090 0.980785
v 0.000000 0.000000 1.000000
v 0.000000 -0.195090 0.980785
v 0.000000 -0.555570 0.831470
v 0.038060 0.980785 0.191342
v 0.074658 0.923880 0.375330
v 0.108386 0.831470 0.544895
v 0.137950 0.707107 0.693520
v 0.162212 0.555570 0.815493
v 0.180240 0.382683 0.906127
v 0.191342 0.195090 0.961940
v 0.195090 0.000000 0.980785
v 0.191342 -0.195090 0.961940
v 0.180240 -0.382683 0.906127
v 0.162212 -0.555570 0.815493
v 0.137950 -0.707107 0.693520
v 0.108386 -0.831470 0.544895
v 0.074658 -0.923880 0.375330
v 0.038060 -0.980785 0.191342
v 0.074658 0.980785 0.180240
v 0.146447 0.923880 0.353553
v 0.212608 0.831470 0.513280
v 0.270598 0.707107 0.653281
v 0.318190 0.555570 0.768178
v 0.353553 0.382683 0.853553
v 0.375330 0.195090 0.906127
v 0.382683 0.000000 0.923879
v 0.375330 -0.195090 0.906127
v 0.353553 -0.382683 0.853553
v 0.318190 -0.555570 0.768178
v 0.270598 -0.707107 0.653281
v 0.212608 -0.831470 0.513280
v 0.146447 -0.923880 0.353553
v 0.074658 -0.980785 0.180240
v 0.108386 0.980785 0.162212
v 0.212608 0.923880 0.318190
v 0.308658 0.831470 0.461940
v 0.392847 0.707107 0.587938
v 0.461940 0.555570 0.691342
v 0.513280 0.382683 0.768178
v 0.544895 0.195090 0.815493
v 0.555570 0.000000 0.831469
v 0.544895 -0.195090 0.815493
v 0.513280 -0.382683 0.768178
v 0.461940 -0.555570 0.691342
v 0.392847 -0.707107 0.587938
v 0.308658 -0.831470 0.461940
v 0.212608 -0.923880 0.318190
v 0.108386 -0.980785 0.162212
v 0.137950 0.980785 0.137950
v 0.270598 0.923880 0.270598
v 0.392847 0.831470 0.392847
v 0.500000 0.707107 0.500000
v 0.587938 0.555570 0.587938
v 0.653281 0.382683 0.653281
v 0.693520 0.195090 0.693520
v 0.707107 0.000000 0.707107
v 0.693520 -0.195090 0.693520
v 0.653281 -0.382683 0.653281
v 0.587938 -0.555570 0.587938
v 0.500000 -0.707107 0.500000
v 0.392847 -0.831470 0.392847
v 0.270598 -0.923880 0.270598
v 0.137950 -0.980785 0.137950
v 0.162212 0.980785 0.108386
v 0.318190 0.923880 0.212608
v 0.461940 0.831470 0.308658
v 0.587938 0.707107 0.392847
v 0.691342 0.555570 0.461940
v 0.768178 0.382683 0.513280
v 0.815493 0.195090 0.544895
v 0.831470 0.000000 0.555570
v 0.815493 -0.195090 0.544895
v 0.768178 -0.382683 0.513280
v 0.691342 -0.555570 0.461940
v 0.587938 -0.707107 0.392847
v 0.461940 -0.831470 0.308658
v 0.318190 -0.923880 0.212608
v 0.162212 -0.980785 0.108386
v 0.000000 1.000000 0.000000
v 0.180240 0.980785 0.074658
v 0.353553 0.923880 0.146447
v 0.513280 0.831470 0.212607
v 0.653281 0.707107 0.270598
v 0.768178 0.555570 0.318190
v 0.853553 0.382683 0.353553
v 0.906127 0.195090 0.375330
v 0.923879 0.000000 0.382683
v 0.906127 -0.195090 0.375330
v 0.853553 -0.382683 0.353553
v 0.768178 -0.555570 0.318190
v 0.653281 -0.707107 0.270598
v 0.513280 -0.831470 0.212607
v 0.353553 -0.923880 0.146447
v 0.180240 -0.980785 0.074658
v 0.191342 0.980785 0.038060
v 0.375330 0.923880 0.074658
v 0.544895 0.831470 0.108386
v 0.693520 0.707107 0.137950
v 0.815493 0.555570 0.162212
v 0.906127 0.382683 0.180240
v 0.961940 0.195090 0.191342
v 0.980785 0.000000 0.195090
v 0.961940 -0.195090 0.191342
v 0.906127 -0.382683 0.180240
v 0.815493 -0.555570 0.162212
v 0.693520 -0.707107 0.137950
v 0.544895 -0.831470 0.108386
v 0.375330 -0.923880 0.074658
v 0.191342 -0.980785 0.038060
v 0.195090 0.980785 -0.000000
v 0.382683 0.923880 -0.000000
v 0.555570 0.831470 -0.000000
v 0.707107 0.707107 0.000000
v 0.831469 0.555570 -0.000000
v 0.923879 0.382683 0.000000
v 0.980785 0.195090 -0.000000
v 1.000000 0.000000 -0.000000
v 0.980785 -0.195090 -0.000000
v 0.923879 -0.382683 0.000000
v 0.831469 -0.555570 -0.000000
v 0.707107 -0.707107 0.000000
v 0.555570 -0.831470 -0.000000
v 0.382683 -0.923880 -0.000000
v 0.195090 -0.980785 -0.000000
v 0.191342 0.980785 -0.038060
v 0.375330 0.923880 -0.074658
v 0.544895 0.831470 -0.108386
v 0.693520 0.707107 -0.137950
v 0.815493 0.555570 -0.162212
v 0.906127 0.382683 -0.180240
v 0.961940 0.195090 -0.191342
v 0.980785 0.000000 -0.195090
v 0.961940 -0.195090 -0.191342
v 0.906127 -0.382683 -0.180240
v 0.815493 -0.555570 -0.162212
v 0.693520 -0.707107 -0.137950
v 0.544895 -0.831470 -0.108386
v 0.375330 -0.923880 -0.074658
v 0.191342 -0.980785 -0.038060
v 0.180240 0.980785 -0.074658
v 0.353553 0.923880 -0.146447
v 0.513280 0.831470 -0.212608
v 0.653281 0.707107 -0.270598
v 0.768178 0.555570 -0.318190
v 0.853553 0.382683 -0.353553
v 0.906127 0.195090 -0.375330
v 0.923879 0.000000 -0.382683
v 0.906127 -0.195090 -0.375330
v 0.853553 -0.382683 -0.353553
v 0.768178 -0.555570 -0.318190
v 0.653281 -0.707107 -0.270598
v 0.513280 -0.831470 -0.212608
v 0.353553 -0.923880 -0.146447
v 0.180240 -0.980785 -0.074658
v 0.162212 0.980785 -0.108386
v 0.318190 0.923880 -0.212608
v 0.461940 0.831470 -0.308658
v 0.587938 0.707107 -0.392847
v 0.691341 0.555570 -0.461940
v 0.768178 0.382683 -0.513280
v 0.815493 0.195090 -0.544895
v 0.831469 0.000000 -0.555570
v 0.815493 -0.195090 -0.544895
v 0.768178 -0.382683 -0.513280
v 0.691341 -0.555570 -0.461940
v 0.587938 -0.707107 -0.392847
v 0.461940 -0.831470 -0.308658
v 0.318190 -0.923880 -0.212608
v 0.162212 -0.980785 -0.108386
v 0.137950 0.980785 -0.137950
v 0.270598 0.923880 -0.270598
v 0.392847 0.831470 -0.392847
v 0.500000 0.707107 -0.500000
v 0.587938 0.555570 -0.587938
v 0.653281 0.382683 -0.653281
v 0.693520 0.195090 -0.693520
v 0.707106 0.000000 -0.707107
v 0.693520 -0.195090 -0.693520
v 0.653281 -0.382683 -0.653281
v 0.587938 -0.555570 -0.587938
v 0.500000 -0.707107 -0.500000
v 0.392847 -0.831470 -0.392847
v 0.270598 -0.923880 -0.270598
v 0.137950 -0.980785 -0.137950
v 0.108386 0.980785 -0.162212
v 0.212607 0.923880 -0.318190
v 0.308658 0.831470 -0.461940
v 0.392847 0.707107 -0.587938
v 0.461940 0.555570 -0.691342
v 0.513280 0.382683 -0.768178
v 0.544895 0.195090 -0.815493
v 0.555570 0.000000 -0.831469
v 0.544895 -0.195090 -0.815493
v 0.513280 -0.382683 -0.768178
v 0.461940 -0.555570 -0.691342
v 0.392847 -0.707107 -0.587938
v 0.308658 -0.831470 -0.461940
v 0.212607 -0.923880 -0.318190
v 0.108386 -0.980785 -0.162212
v 0.074658 0.980785 -0.180240
v 0.146447 0.923880 -0.353553
v 0.212607 0.831470 -0.513280
v 0.270598 0.707107 -0.653281
v 0.318189 0.555570 -0.768178
v 0.353553 0.382683 -0.853553
v 0.375330 0.195090 -0.906127
v 0.382683 0.000000 -0.923879
v 0.375330 -0.195090 -0.906127
v 0.353553 -0.382683 -0.853553
v 0.318189 -0.555570 -0.768178
v 0.270598 -0.707107 -0.653281
v 0.212607 -0.831470 -0.513280
v 0.146447 -0.923880 -0.353553
v 0.074658 -0.980785 -0.180240
v 0.038060 0.980785 -0.191342
v 0.074658 0.923880 -0.375330
v 0.108386 0.831470 -0.544895
v 0.137950 0.707107 -0.693520
v 0.162212 0.555570 -0.815493
v 0.180240 0.382683 -0.906127
v 0.191342 0.195090 -0.961939
v 0.195090 0.000000 -0.980785
v 0.191342 -0.195090 -0.961939
v 0.180240 -0.382683 -0.906127
v 0.162212 -0.555570 -0.815493
v 0.137950 -0.707107 -0.693520
v 0.108386 -0.831470 -0.544895
v 0.074658 -0.923880 -0.375330
v 0.038060 -0.980785 -0.191342
v -0.000000 0.980785 -0.195090
v -0.000000 0.923880 -0.382683
v -0.000000 0.831470 -0.555570
v -0.000000 0.707107 -0.707107
v -0.000000 0.555570 -0.831469
v 0.000000 0.382683 -0.923879
v -0.000000 0.195090 -0.980785
v -0.000000 0.000000 -0.999999
v -0.000000 -0.195090 -0.980785
v 0.000000 -0.382683 -0.923879
v -0.000000 -0.555570 -0.831469
v -0.000000 -0.707107 -0.707107
v -0.000000 -0.831470 -0.555570
v -0.000000 -0.923880 -0.382683
v -0.000000 -0.980785 -0.195090
v -0.038060 0.980785 -0.191342
v -0.074658 0.923880 -0.375330
v -0.108386 0.831470 -0.544895
v -0.137950 0.707107 -0.693520
v -0.162212 0.555570 -0.815493
v -0.180240 0.382683 -0.906127
v -0.191342 0.195090 -0.961939
v -0.195091 0.000000 -0.980785
v -0.191342 -0.195090 -0.961939
v -0.180240 -0.382683 -0.906127
v -0.162212 -0.555570 -0.815493
v -0.137950 -0.707107 -0.693520
v -0.108386 -0.831470 -0.544895
v -0.074658 -0.923880 -0.375330
v -0.038060 -0.980785 -0.191342
v -0.074658 0.980785 -0.180240
v -0.146447 0.923880 -0.353553
v -0.212608 0.831470 -0.513280
v -0.270598 0.707107 -0.653281
v -0.318190 0.555570 -0.768177
v -0.353553 0.382683 -0.853553
v -0.375330 0.195090 -0.906127
v -0.382683 0.000000 -0.923879
v -0.375330 -0.195090 -0.906127
v -0.353553 -0.382683 -0.853553
v -0.318190 -0.555570 -0.768177
v -0.270598 -0.707107 -0.653281
v -0.212608 -0.831470 -0.513280
v -0.146447 -0.923880 -0.353553
v -0.074658 -0.980785 -0.180240
v -0.108386 0.980785 -0.162212
v -0.212608 0.923880 -0.318190
v -0.308658 0.831470 -0.461939
v -0.392847 0.707107 -0.587938
v -0.461940 0.555570 -0.691341
v -0.513280 0.382683 -0.768178
v -0.544895 0.195090 -0.815493
v -0.555570 0.000000 -0.831469
v -0.544895 -0.195090 -0.815493
v -0.513280 -0.382683 -0.768178
v -0.461940 -0.555570 -0.691341
v -0.392847 -0.707107 -0.587938
v -0.308658 -0.831470 -0.461939
v -0.212608 -0.923880 -0.318190
v -0.108386 -0.980785 -0.162212
v -0.137950 0.980785 -0.137950
v -0.270598 0.923880 -0.270598
v -0.392847 0.831470 -0.392847
v -0.500000 0.707107 -0.500000
v -0.587938 0.555570 -0.587937
v -0.653281 0.382683 -0.653281
v -0.693520 0.195090 -0.693520
v -0.707106 0.000000 -0.707106
v -0.693520 -0.195090 -0.693520
v -0.653281 -0.382683 -0.653281
v -0.587938 -0.555570 -0.587937
v -0.500000 -0.707107 -0.500000
v -0.392847 -0.831470 -0.392847
v -0.270598 -0.923880 -0.270598
v -0.137950 -0.980785 -0.137950
v 0.000000 -1.000000 0.000000
v -0.162212 0.980785 -0.108386
v -0.318190 0.923880 -0.212607
v -0.461940 0.831470 -0.308658
v -0.587938 0.707107 -0.392847
v -0.691341 0.555570 -0.461939
v -0.768177 0.382683 -0.513280
v -0.815493 0.195090 -0.544895
v -0.831469 0.000000 -0.555569
v -0.815493 -0.195090 -0.544895
v -0.768177 -0.382683 -0.513280
v -0.691341 -0.555570 -0.461939
v -0.587938 -0.707107 -0.392847
v -0.461940 -0.831470 -0.308658
v -0.318190 -0.923880 -0.212607
v -0.162212 -0.980785 -0.108386
v -0.180240 0.980785 -0.074658
v -0.353553 0.923880 -0.146447
v -0.513280 0.831470 -0.212607
v -0.653281 0.707107 -0.270598
v -0.768177 0.555570 -0.318189
v -0.853553 0.382683 -0.353553
v -0.906127 0.195090 -0.375330
v -0.923879 0.000000 -0.382683
v -0.906127 -0.195090 -0.375330
v -0.853553 -0.382683 -0.353553
v -0.768177 -0.555570 -0.318189
v -0.653281 -0.707107 -0.270598
v -0.513280 -0.831470 -0.212607
v -0.353553 -0.923880 -0.146447
v -0.180240 -0.980785 -0.074658
v -0.191342 0.980785 -0.038060
v -0.375330 0.923880 -0.074658
v -0.544895 0.831470 -0.108386
v -0.693520 0.707107 -0.137950
v -0.815493 0.555570 -0.162211
v -0.906127 0.382683 -0.180240
v -0.961939 0.195090 -0.191341
v -0.980784 0.000000 -0.195090
v -0.961939 -0.195090 -0.191341
v -0.906127 -0.382683 -0.180240
v -0.815493 -0.555570 -0.162211
v -0.693520 -0.707107 -0.137950
v -0.544895 -0.831470 -0.108386
v -0.375330 -0.923880 -0.074658
v -0.191342 -0.980785 -0.038060
v -0.195090 0.980785 0.000000
v -0.382683 0.923880 0.000000
v -0.555570 0.831470 0.000000
v -0.707107 0.707107 0.000000
v -0.831469 0.555570 0.000000
v -0.923879 0.382683 0.000000
v -0.980785 0.195090 0.000000
v -0.999999 0.000000 0.000000
v -0.980785 -0.195090 0.000000
v -0.923879 -0.382683 0.000000
v -0.831469 -0.555570 0.000000
v -0.707107 -0.707107 0.000000
v -0.555570 -0.831470 0.000000
v -0.382683 -0.923880 0.000000
v -0.195090 -0.980785 0.000000
v -0.191342 0.980785 0.038060
v -0.375330 0.923880 0.074658
v -0.544895 0.831470 0.108386
v -0.693520 0.707107 0.137950
v -0.815493 0.555570 0.162212
v -0.906127 0.382683 0.180240
v -0.961939 0.195090 0.191342
v -0.980784 0.000000 0.195091
v -0.961939 -0.195090 0.191342
v -0.906127 -0.382683 0.180240
v -0.815493 -0.555570 0.162212
v -0.693520 -0.707107 0.137950
v -0.544895 -0.831470 0.108386
v -0.375330 -0.923880 0.074658
v -0.191342 -0.980785 0.038060
v -0.180240 0.980785 0.074658
v -0.353553 0.923880 0.146447
v -0.513279 0.831470 0.212607
v -0.653281 0.707107 0.270598
v -0.768177 0.555570 0.318190
v -0.853553 0.382683 0.353553
v -0.906127 0.195090 0.375330
v -0.923878 0.000000 0.382683
v -0.906127 -0.195090 0.375330
v -0.853553 -0.382683 0.353553
v -0.768177 -0.555570 0.318190
v -0.653281 -0.707107 0.270598
v -0.513279 -0.831470 0.212607
v -0.353553 -0.923880 0.146447
v -0.180240 -0.980785 0.074658
v -0.162212 0.980785 0.108386
v -0.318189 0.923880 0.212607
v -0.461939 0.831470 0.308658
v -0.587938 0.707107 0.392847
v -0.691341 0.555570 0.461940
v -0.768177 0.382683 0.513280
v -0.815493 0.195090 0.544895
v -0.831468 0.000000 0.555570
v -0.815493 -0.195090 0.544895
v -0.768177 -0.382683 0.513280
v -0.691341 -0.555570 0.461940
v -0.587938 -0.707107 0.392847
v -0.461939 -0.831470 0.308658
v -0.318189 -0.923880 0.212607
v -0.162212 -0.980785 0.108386
v -0.137950 0.980785 0.137950
v -0.270598 0.923880 0.270598
v -0.392847 0.831470 0.392847
v -0.500000 0.707107 0.500000
v -0.587937 0.555570 0.587938
v -0.653281 0.382683 0.653281
v -0.693519 0.195090 0.693520
v -0.707106 0.000000 0.707106
v -0.693519 -0.195090 0.693520
v -0.653281 -0.382683 0.653281
v -0.587937 -0.555570 0.587938
v -0.500000 -0.707107 0.500000
v -0.392847 -0.831470 0.392847
v -0.270598 -0.923880 0.270598
v -0.137950 -0.980785 0.137950
v -0.108386 0.980785 0.162212
v -0.212607 0.923880 0.318190
v -0.308658 0.831470 0.461939
v -0.392847 0.707107 0.587938
v -0.461939 0.555570 0.691341
v -0.513280 0.382683 0.768177
v -0.544895 0.195090 0.815493
v -0.555569 0.000000 0.831469
v -0.544895 -0.195090 0.815493
v -0.513280 -0.382683 0.768177
v -0.461939 -0.555570 0.691341
v -0.392847 -0.707107 0.587938
v -0.308658 -0.831470 0.461939
v -0.212607 -0.923880 0.318190
v -0.108386 -0.980785 0.162212
v -0.074658 0.980785 0.180240
v -0.146446 0.923880 0.353553
v -0.212607 0.831470 0.513279
v -0.270598 0.707107 0.653281
v -0.318189 0.555570 0.768177
v -0.353553 0.382683 0.853553
v -0.375330 0.195090 0.906127
v -0.382683 0.000000 0.923879
v -0.375330 -0.195090 0.906127
v -0.353553 -0.382683 0.853553
v -0.318189 -0.555570 0.768177
v -0.270598 -0.707107 0.653281
v -0.212607 -0.831470 0.513279
v -0.146446 -0.923880 0.353553
v -0.074658 -0.980785 0.180240
v -0.038060 0.980785 0.191342
v -0.074658 0.923880 0.375330
v -0.108386 0.831470 0.544895
v -0.137950 0.707107 0.693520
v -0.162211 0.555570 0.815493
v -0.180240 0.382683 0.906127
v -0.191341 0.195090 0.961939
v -0.195090 0.000000 0.980784
v -0.191341 -0.195090 0.961939
v -0.180240 -0.382683 0.906127
v -0.162211 -0.555570 0.815493
v -0.137950 -0.707107 0.693520
v -0.108386 -0.831470 0.544895
v -0.074658 -0.923880 0.375330
v -0.038060 -0.980785 0.191342
v 0.000000 0.980785 0.195090
v 0.000000 0.923880 0.382683
v 0.000000 0.707107 0.707107
v 0.000000 0.382683 0.923879
v 0.000000 -0.382683 0.923879
v 0.000000 -0.707107 0.707107
v 0.000000 -0.831470 0.555570
v 0.000000 -0.923880 0.382683
v 0.000000 -0.980785 0.195090
vn -0.0464 0.8810 -0.4709
vn -0.0938 -0.2890 -0.9527
vn -0.0286 0.9565 -0.2902
vn -0.0975 -0.0975 -0.9904
vn -0.0097 -0.9951 -0.0980
vn -0.0097 0.9951 -0.0980
vn -0.0975 0.0975 -0.9904
vn -0.0286 -0.9565 -0.2902
vn -0.0938 0.2890 -0.9527
vn -0.0464 -0.8810 -0.4709
vn -0.0865 0.4696 -0.8786
vn -0.0624 -0.7715 -0.6332
vn -0.0759 0.6326 -0.7708
vn -0.0759 -0.6326 -0.7708
vn -0.0624 0.7715 -0.6332
vn -0.0865 -0.4696 -0.8786
vn -0.1847 0.7715 -0.6088
vn -0.2563 -0.4696 -0.8448
vn -0.1374 0.8810 -0.4528
vn -0.2779 -0.2890 -0.9161
vn -0.0846 0.9565 -0.2790
vn -0.2889 -0.0976 -0.9524
vn -0.0286 -0.9951 -0.0942
vn -0.0286 0.9951 -0.0942
vn -0.2889 0.0976 -0.9524
vn -0.0846 -0.9565 -0.2790
vn -0.2779 0.2890 -0.9161
vn -0.1374 -0.8810 -0.4528
vn -0.2563 0.4696 -0.8448
vn -0.1847 -0.7715 -0.6088
vn -0.2248 0.6326 -0.7412
vn -0.2248 -0.6326 -0.7412
vn -0.1374 -0.9565 -0.2571
vn -0.4513 0.2890 -0.8443
vn -0.2230 -0.8810 -0.4173
vn -0.4162 0.4696 -0.7786
vn -0.2999 -0.7715 -0.5611
vn -0.3651 0.6326 -0.6831
vn -0.3651 -0.6326 -0.6831
vn -0.2999 0.7715 -0.5611
vn -0.4162 -0.4696 -0.7786
vn -0.2230 0.8810 -0.4173
vn -0.4513 -0.2890 -0.8443
vn -0.1374 0.9565 -0.2571
vn -0.4691 -0.0975 -0.8777
vn -0.0464 -0.9951 -0.0869
vn -0.0464 0.9951 -0.0869
vn -0.4691 0.0975 -0.8777
vn -0.5601 -0.4696 -0.6825
vn -0.3002 0.8810 -0.3658
vn -0.6073 -0.2890 -0.7400
vn -0.1850 0.9565 -0.2254
vn -0.6314 -0.0975 -0.7693
vn -0.0625 -0.9951 -0.0761
vn -0.0625 0.9951 -0.0761
vn -0.6314 0.0975 -0.7693
vn -0.1850 -0.9565 -0.2254
vn -0.6073 0.2890 -0.7400
vn -0.3002 -0.8810 -0.3658
vn -0.5601 0.4696 -0.6825
vn -0.4036 -0.7715 -0.4918
vn -0.4913 0.6326 -0.5987
vn -0.4913 -0.6326 -0.5987
vn -0.4036 0.7715 -0.4918
vn -0.7400 0.2890 -0.6073
vn -0.3658 -0.8810 -0.3002
vn -0.6825 0.4696 -0.5601
vn -0.4918 -0.7715 -0.4036
vn -0.5987 0.6326 -0.4913
vn -0.5987 -0.6326 -0.4913
vn -0.4918 0.7715 -0.4036
vn -0.6825 -0.4696 -0.5601
vn -0.3658 0.8810 -0.3002
vn -0.7400 -0.2890 -0.6073
vn -0.2254 0.9565 -0.1850
vn -0.7693 -0.0975 -0.6314
vn -0.0761 -0.9951 -0.0625
vn -0.0761 0.9951 -0.0625
vn -0.7693 0.0975 -0.6314
vn -0.2254 -0.9565 -0.1850
vn -0.4173 0.8810 -0.2230
vn -0.8443 -0.2890 -0.4513
vn -0.2571 0.9565 -0.1374
vn -0.8777 -0.0975 -0.4691
vn -0.0869 -0.9951 -0.0464
vn -0.0869 0.9951 -0.0464
vn -0.8777 0.0975 -0.4691
vn -0.2571 -0.9565 -0.1374
vn -0.8443 0.2890 -0.4513
vn -0.4173 -0.8810 -0.2230
vn -0.7786 0.4696 -0.4162
vn -0.5611 -0.7715 -0.2999
vn -0.6831 0.6326 -0.3651
vn -0.6831 -0.6326 -0.3651
vn -0.5611 0.7715 -0.2999
vn -0.7786 -0.4696 -0.4162
vn -0.8448 0.4696 -0.2563
vn -0.6088 -0.7715 -0.1847
vn -0.7412 0.6326 -0.2248
vn -0.7412 -0.6326 -0.2248
vn -0.6088 0.7715 -0.1847
vn -0.8448 -0.4696 -0.2563
vn -0.4528 0.8810 -0.1374
vn -0.9161 -0.2890 -0.2779
vn -0.2790 0.9565 -0.0846
vn -0.9524 -0.0975 -0.2889
vn -0.0942 -0.9951 -0.0286
vn -0.0942 0.9951 -0.0286
vn -0.9524 0.0975 -0.2889
vn -0.2790 -0.9565 -0.0846
vn -0.9161 0.2890 -0.2779
vn -0.4528 -0.8810 -0.1374
vn -0.2902 0.9565 -0.0286
vn -0.9904 -0.0975 -0.0975
vn -0.0980 -0.9951 -0.0097
vn -0.0980 0.9951 -0.0097
vn -0.9904 0.0975 -0.0975
vn -0.2902 -0.9565 -0.0286
vn -0.9527 0.2890 -0.0938
vn -0.4709 -0.8810 -0.0464
vn -0.8786 0.4696 -0.0865
vn -0.6332 -0.7715 -0.0624
vn -0.7708 0.6326 -0.0759
vn -0.7708 -0.6326 -0.0759
vn -0.6332 0.7715 -0.0624
vn -0.8786 -0.4696 -0.0865
vn -0.4709 0.8810 -0.0464
vn -0.9527 -0.2890 -0.0938
vn -0.6332 -0.7715 0.0624
vn -0.7708 0.6326 0.0759
vn -0.7708 -0.6326 0.0759
vn -0.6332 0.7715 0.0624
vn -0.8786 -0.4696 0.0865
vn -0.4709 0.8810 0.0464
vn -0.9527 -0.2890 0.0938
vn -0.2902 0.9565 0.0286
vn -0.9904 -0.0975 0.0976
vn -0.0980 -0.9951 0.0097
vn -0.0980 0.9951 0.0097
vn -0.9904 0.0975 0.0976
vn -0.2902 -0.9565 0.0286
vn -0.9527 0.2890 0.0938
vn -0.4709 -0.8810 0.0464
vn -0.8786 0.4696 0.0865
vn -0.9524 -0.0975 0.2889
vn -0.0942 -0.9951 0.0286
vn -0.0942 0.9951 0.0286
vn -0.9524 0.0975 0.2889
vn -0.2790 -0.9565 0.0846
vn -0.9161 0.2890 0.2779
vn -0.4528 -0.8810 0.1374
vn -0.8448 0.4696 0.2563
vn -0.6088 -0.7715 0.1847
vn -0.7412 0.6326 0.2248
vn -0.7412 -0.6326 0.2248
vn -0.6088 0.7715 0.1847
vn -0.8448 -0.4696 0.2563
vn -0.4528 0.8810 0.1374
vn -0.9161 -0.2890 0.2779
vn -0.2790 0.9565 0.0846
vn -0.6831 0.6326 0.3651
vn -0.6831 -0.6326 0.3651
vn -0.5611 0.7715 0.2999
vn -0.7786 -0.4696 0.4162
vn -0.4173 0.8810 0.2230
vn -0.8443 -0.2890 0.4513
vn -0.2571 0.9565 0.1374
vn -0.8777 -0.0975 0.4691
vn -0.0869 -0.9951 0.0464
vn -0.0869 0.9951 0.0464
vn -0.8777 0.0975 0.4691
vn -0.2571 -0.9565 0.1374
vn -0.8443 0.2890 0.4513
vn -0.4173 -0.8810 0.2230
vn -0.7786 0.4696 0.4162
vn -0.5611 -0.7715 0.2999
vn -0.0761 -0.9951 0.0625
vn -0.0761 0.9951 0.0625
vn -0.7693 0.0975 0.6314
vn -0.2254 -0.9565 0.1850
vn -0.7400 0.2890 0.6073
vn -0.3658 -0.8810 0.3002
vn -0.6825 0.4696 0.5601
vn -0.4918 -0.7715 0.4036
vn -0.5987 0.6326 0.4913
vn -0.5987 -0.6326 0.4913
vn -0.4918 0.7715 0.4036
vn -0.6825 -0.4696 0.5601
vn -0.3658 0.8810 0.3002
vn -0.7400 -0.2890 0.6073
vn -0.2254 0.9565 0.1850
vn -0.7693 -0.0975 0.6314
vn -0.4913 -0.6326 0.5987
vn -0.4036 0.7715 0.4918
vn -0.5601 -0.4696 0.6825
vn -0.3002 0.8810 0.3658
vn -0.6073 -0.2890 0.7400
vn -0.1850 0.9565 0.2254
vn -0.6314 -0.0975 0.7693
vn -0.0625 -0.9951 0.0761
vn -0.0625 0.9951 0.0761
vn -0.6314 0.0975 0.7693
vn -0.1850 -0.9565 0.2254
vn -0.6073 0.2890 0.7400
vn -0.3002 -0.8810 0.3658
vn -0.5601 0.4696 0.6825
vn -0.4036 -0.7715 0.4918
vn -0.4913 0.6326 0.5987
vn -0.4691 0.0975 0.8777
vn -0.1374 -0.9565 0.2571
vn -0.4513 0.2890 0.8443
vn -0.2230 -0.8810 0.4173
vn -0.4162 0.4696 0.7786
vn -0.2999 -0.7715 0.5611
vn -0.3651 0.6326 0.6831
vn -0.3651 -0.6326 0.6831
vn -0.2999 0.7715 0.5611
vn -0.4162 -0.4696 0.7786
vn -0.2230 0.8810 0.4173
vn -0.4513 -0.2890 0.8443
vn -0.1374 0.9565 0.2571
vn -0.4691 -0.0975 0.8777
vn -0.0464 -0.9951 0.0869
vn -0.0464 0.9951 0.0869
vn -0.1847 0.7715 0.6088
vn -0.2563 -0.4696 0.8448
vn -0.1374 0.8810 0.4528
vn -0.2779 -0.2890 0.9161
vn -0.0846 0.9565 0.2790
vn -0.2889 -0.0975 0.9524
vn -0.0286 -0.9951 0.0942
vn -0.0286 0.9951 0.0942
vn -0.2889 0.0975 0.9524
vn -0.0846 -0.9565 0.2790
vn -0.2779 0.2890 0.9161
vn -0.1374 -0.8810 0.4528
vn -0.2563 0.4696 0.8448
vn -0.1847 -0.7715 0.6088
vn -0.2248 0.6326 0.7412
vn -0.2248 -0.6326 0.7412
vn -0.0938 0.2890 0.9527
vn -0.0464 -0.8810 0.4709
vn -0.0865 0.4696 0.8786
vn -0.0624 -0.7715 0.6332
vn -0.0759 0.6326 0.7708
vn -0.0759 -0.6326 0.7708
vn -0.0624 0.7715 0.6332
vn -0.0865 -0.4696 0.8786
vn -0.0464 0.8810 0.4709
vn -0.0938 -0.2890 0.9527
vn -0.0286 0.9565 0.2902
vn -0.0975 -0.0975 0.9904
vn -0.0097 -0.9951 0.0980
vn -0.0097 0.9951 0.0980
vn -0.0975 0.0975 0.9904
vn -0.0286 -0.9565 0.2902
vn 0.0464 0.8810 0.4709
vn 0.0938 -0.2890 0.9527
vn 0.0286 0.9565 0.2902
vn 0.0976 -0.0975 0.9904
vn 0.0097 -0.9951 0.0980
vn 0.0097 0.9951 0.0980
vn 0.0976 0.0975 0.9904
vn 0.0286 -0.9565 0.2902
vn 0.0938 0.2890 0.9527
vn 0.0464 -0.8810 0.4709
vn 0.0865 0.4696 0.8786
vn 0.0624 -0.7715 0.6332
vn 0.0759 0.6326 0.7708
vn 0.0759 -0.6326 0.7708
vn 0.0624 0.7715 0.6332
vn 0.0865 -0.4696 0.8786
vn 0.1374 -0.8810 0.4528
vn 0.2563 0.4696 0.8448
vn 0.1847 -0.7715 0.6088
vn 0.2248 0.6326 0.7412
vn 0.2248 -0.6326 0.7412
vn 0.1847 0.7715 0.6088
vn 0.2563 -0.4696 0.8448
vn 0.1374 0.8810 0.4528
vn 0.2779 -0.2890 0.9161
vn 0.0846 0.9565 0.2790
vn 0.2889 -0.0975 0.9524
vn 0.0286 -0.9951 0.0942
vn 0.0286 0.9951 0.0942
vn 0.2889 0.0975 0.9524
vn 0.0846 -0.9565 0.2790
vn 0.2779 0.2890 0.9161
vn 0.4513 -0.2890 0.8443
vn 0.1374 0.9565 0.2571
vn 0.4691 -0.0975 0.8777
vn 0.0464 -0.9951 0.0869
vn 0.0464 0.9951 0.0869
vn 0.4691 0.0975 0.8777
vn 0.1374 -0.9565 0.2571
vn 0.4513 0.2890 0.8443
vn 0.2231 -0.8810 0.4173
vn 0.4162 0.4696 0.7786
vn 0.2999 -0.7715 0.5611
vn 0.3651 0.6326 0.6831
vn 0.3651 -0.6326 0.6831
vn 0.2999 0.7715 0.5611
vn 0.4162 -0.4696 0.7786
vn 0.2230 0.8810 0.4173
vn 0.5601 0.4696 0.6825
vn 0.4036 -0.7715 0.4918
vn 0.4913 0.6326 0.5987
vn 0.4913 -0.6326 0.5987
vn 0.4036 0.7715 0.4918
vn 0.5601 -0.4696 0.6825
vn 0.3002 0.8810 0.3658
vn 0.6073 -0.2890 0.7400
vn 0.1850 0.9565 0.2254
vn 0.6314 -0.0975 0.7693
vn 0.0625 -0.9951 0.0761
vn 0.0625 0.9951 0.0761
vn 0.6314 0.0975 0.7693
vn 0.1850 -0.9565 0.2254
vn 0.6073 0.2890 0.7400
vn 0.3002 -0.8810 0.3658
vn 0.2254 0.9565 0.1850
vn 0.7693 -0.0975 0.6314
vn 0.0761 -0.9951 0.0625
vn 0.0761 0.9951 0.0625
vn 0.7693 0.0975 0.6314
vn 0.2254 -0.9565 0.1850
vn 0.7400 0.2890 0.6073
vn 0.3658 -0.8810 0.3002
vn 0.6825 0.4696 0.5601
vn 0.4918 -0.7715 0.4036
vn 0.5987 0.6326 0.4913
vn 0.5987 -0.6326 0.4913
vn 0.4918 0.7715 0.4036
vn 0.6825 -0.4696 0.5601
vn 0.3658 0.8810 0.3002
vn 0.7400 -0.2890 0.6073
vn 0.5611 -0.7715 0.2999
vn 0.6831 0.6326 0.3651
vn 0.6831 -0.6326 0.3651
vn 0.5611 0.7715 0.2999
vn 0.7786 -0.4696 0.4162
vn 0.4173 0.8810 0.2230
vn 0.8443 -0.2890 0.4513
vn 0.2571 0.9565 0.1374
vn 0.8777 -0.0975 0.4691
vn 0.0869 -0.9951 0.0464
vn 0.0869 0.9951 0.0464
vn 0.8777 0.0975 0.4691
vn 0.2571 -0.9565 0.1374
vn 0.8443 0.2890 0.4513
vn 0.4173 -0.8810 0.2230
vn 0.7786 0.4696 0.4162
vn 0.9524 -0.0975 0.2889
vn 0.0942 -0.9951 0.0286
vn 0.0942 0.9951 0.0286
vn 0.9524 0.0975 0.2889
vn 0.2790 -0.9565 0.0846
vn 0.9161 0.2890 0.2779
vn 0.4528 -0.8810 0.1374
vn 0.8448 0.4696 0.2563
vn 0.6088 -0.7715 0.1847
vn 0.7412 0.6326 0.2248
vn 0.7412 -0.6326 0.2248
vn 0.6088 0.7715 0.1847
vn 0.8448 -0.4696 0.2563
vn 0.4528 0.8810 0.1374
vn 0.9161 -0.2890 0.2779
vn 0.2790 0.9565 0.0846
vn 0.7708 0.6326 0.0759
vn 0.7708 -0.6326 0.0759
vn 0.6332 0.7715 0.0624
vn 0.8786 -0.4696 0.0865
vn 0.4709 0.8810 0.0464
vn 0.9527 -0.2890 0.0938
vn 0.2902 0.9565 0.0286
vn 0.9904 -0.0975 0.0975
vn 0.0980 -0.9951 0.0097
vn 0.0980 0.9951 0.0097
vn 0.9904 0.0975 0.0975
vn 0.2902 -0.9565 0.0286
vn 0.9527 0.2890 0.0938
vn 0.4709 -0.8810 0.0464
vn 0.8786 0.4696 0.0865
vn 0.6332 -0.7715 0.0624
vn 0.0980 0.9951 -0.0097
vn 0.9904 0.0975 -0.0976
vn 0.2902 -0.9565 -0.0286
vn 0.9527 0.2890 -0.0938
vn 0.4709 -0.8810 -0.0464
vn 0.8786 0.4696 -0.0865
vn 0.6332 -0.7715 -0.0624
vn 0.7708 0.6326 -0.0759
vn 0.7708 -0.6326 -0.0759
vn 0.6332 0.7715 -0.0624
vn 0.8786 -0.4696 -0.0865
vn 0.4709 0.8810 -0.0464
vn 0.9527 -0.2890 -0.0938
vn 0.2902 0.9565 -0.0286
vn 0.9904 -0.0975 -0.0976
vn 0.0980 -0.9951 -0.0097
vn 0.6088 0.7715 -0.1847
vn 0.8448 -0.4696 -0.2563
vn 0.4528 0.8810 -0.1374
vn 0.9161 -0.2890 -0.2779
vn 0.2790 0.9565 -0.0846
vn 0.9524 -0.0975 -0.2889
vn 0.0942 -0.9951 -0.0286
vn 0.0942 0.9951 -0.0286
vn 0.9524 0.0975 -0.2889
vn 0.2790 -0.9565 -0.0846
vn 0.9161 0.2890 -0.2779
vn 0.4528 -0.8810 -0.1374
vn 0.8448 0.4696 -0.2563
vn 0.6088 -0.7715 -0.1847
vn 0.7412 0.6326 -0.2248
vn 0.7412 -0.6326 -0.2248
vn 0.2571 -0.9565 -0.1374
vn 0.8443 0.2890 -0.4513
vn 0.4173 -0.8810 -0.2231
vn 0.7786 0.4696 -0.4162
vn 0.5611 -0.7715 -0.2999
vn 0.6831 0.6326 -0.3651
vn 0.6831 -0.6326 -0.3651
vn 0.5611 0.7715 -0.2999
vn 0.7786 -0.4696 -0.4162
vn 0.4173 0.8810 -0.2231
vn 0.8443 -0.2890 -0.4513
vn 0.2571 0.9565 -0.1374
vn 0.8777 -0.0975 -0.4691
vn 0.0869 -0.9951 -0.0464
vn 0.0869 0.9951 -0.0464
vn 0.8777 0.0975 -0.4691
vn 0.6825 -0.4696 -0.5601
vn 0.3658 0.8810 -0.3002
vn 0.7400 -0.2890 -0.6073
vn 0.2254 0.9565 -0.1850
vn 0.7693 -0.0975 -0.6314
vn 0.0761 -0.9951 -0.0625
vn 0.0761 0.9951 -0.0625
vn 0.7693 0.0975 -0.6314
vn 0.2254 -0.9565 -0.1850
vn 0.7400 0.2890 -0.6073
vn 0.3658 -0.8810 -0.3002
vn 0.6825 0.4696 -0.5601
vn 0.4918 -0.7715 -0.4036
vn 0.5987 0.6326 -0.4913
vn 0.5987 -0.6326 -0.4913
vn 0.4918 0.7715 -0.4036
vn 0.6073 0.2890 -0.7400
vn 0.3002 -0.8810 -0.3658
vn 0.5601 0.4696 -0.6825
vn 0.4036 -0.7715 -0.4918
vn 0.4913 0.6326 -0.5987
vn 0.4913 -0.6326 -0.5987
vn 0.4036 0.7715 -0.4918
vn 0.5601 -0.4696 -0.6825
vn 0.3002 0.8810 -0.3658
vn 0.6073 -0.2890 -0.7400
vn 0.1850 0.9565 -0.2254
vn 0.6314 -0.0975 -0.7693
vn 0.0625 -0.9951 -0.0761
vn 0.0625 0.9951 -0.0761
vn 0.6314 0.0975 -0.7693
vn 0.1850 -0.9565 -0.2254
vn 0.2230 0.8810 -0.4173
vn 0.4513 -0.2890 -0.8443
vn 0.1374 0.9565 -0.2571
vn 0.4691 -0.0975 -0.8777
vn 0.0464 -0.9951 -0.0869
vn 0.0464 0.9951 -0.0869
vn 0.4691 0.0975 -0.8777
vn 0.1374 -0.9565 -0.2571
vn 0.4513 0.2890 -0.8443
vn 0.2230 -0.8810 -0.4173
vn 0.4162 0.4696 -0.7786
vn 0.2999 -0.7715 -0.5611
vn 0.3651 0.6326 -0.6831
vn 0.3651 -0.6326 -0.6831
vn 0.2999 0.7715 -0.5611
vn 0.4162 -0.4696 -0.7786
vn 0.1374 -0.8810 -0.4528
vn 0.2563 0.4696 -0.8448
vn 0.1847 -0.7715 -0.6088
vn 0.2248 0.6326 -0.7412
vn 0.2248 -0.6326 -0.7412
vn 0.1847 0.7715 -0.6088
vn 0.2563 -0.4696 -0.8448
vn 0.1374 0.8810 -0.4528
vn 0.2779 -0.2890 -0.9161
vn 0.0846 0.9565 -0.2790
vn 0.2889 -0.0975 -0.9524
vn 0.0286 -0.9951 -0.0942
vn 0.0286 0.9951 -0.0942
vn 0.2889 0.0975 -0.9524
vn 0.0846 -0.9565 -0.2790
vn 0.2779 0.2890 -0.9161
vn 0.0938 -0.2890 -0.9527
vn 0.0286 0.9565 -0.2902
vn 0.0976 -0.0975 -0.9904
vn 0.0097 -0.9951 -0.0980
vn 0.0097 0.9951 -0.0980
vn 0.0976 0.0975 -0.9904
vn 0.0286 -0.9565 -0.2902
vn 0.0938 0.2890 -0.9527
vn 0.0464 -0.8810 -0.4709
vn 0.0865 0.4696 -0.8786
vn 0.0624 -0.7715 -0.6332
vn 0.0759 0.6326 -0.7708
vn 0.0759 -0.6326 -0.7708
vn 0.0624 0.7715 -0.6332
vn 0.0865 -0.4696 -0.8786
vn 0.0464 0.8810 -0.4709
vt 0.750000 0.125000
vt 0.718750 0.125000
vt 0.718750 0.187500
vt 0.750000 0.187500
vt 0.750000 0.562500
vt 0.718750 0.562500
vt 0.718750 0.625000
vt 0.750000 0.625000
vt 0.750000 0.062500
vt 0.718750 0.062500
vt 0.750000 0.500000
vt 0.718750 0.500000
vt 0.750000 0.937500
vt 0.718750 0.937500
vt 0.734375 1.000000
vt 0.734375 0.000000
vt 0.750000 0.437500
vt 0.718750 0.437500
vt 0.750000 0.875000
vt 0.718750 0.875000
vt 0.750000 0.375000
vt 0.718750 0.375000
vt 0.750000 0.812500
vt 0.718750 0.812500
vt 0.750000 0.312500
vt 0.718750 0.312500
vt 0.750000 0.750000
vt 0.718750 0.750000
vt 0.750000 0.250000
vt 0.718750 0.250000
vt 0.750000 0.687500
vt 0.718750 0.687500
vt 0.687500 0.187500
vt 0.687500 0.250000
vt 0.687500 0.625000
vt 0.687500 0.687500
vt 0.687500 0.125000
vt 0.687500 0.562500
vt 0.687500 0.062500
vt 0.687500 0.500000
vt 0.687500 0.937500
vt 0.703125 1.000000
vt 0.703125 0.000000
vt 0.687500 0.437500
vt 0.687500 0.875000
vt 0.687500 0.375000
vt 0.687500 0.812500
vt 0.687500 0.312500
vt 0.687500 0.750000
vt 0.656250 0.875000
vt 0.656250 0.937500
vt 0.656250 0.375000
vt 0.656250 0.437500
vt 0.656250 0.812500
vt 0.656250 0.312500
vt 0.656250 0.750000
vt 0.656250 0.250000
vt 0.656250 0.687500
vt 0.656250 0.187500
vt 0.656250 0.625000
vt 0.656250 0.125000
vt 0.656250 0.562500
vt 0.656250 0.062500
vt 0.656250 0.500000
vt 0.671875 1.000000
vt 0.671875 0.000000
vt 0.625000 0.625000
vt 0.625000 0.687500
vt 0.625000 0.125000
vt 0.625000 0.187500
vt 0.625000 0.562500
vt 0.625000 0.062500
vt 0.625000 0.500000
vt 0.625000 0.937500
vt 0.640625 1.000000
vt 0.640625 0.000000
vt 0.625000 0.437500
vt 0.625000 0.875000
vt 0.625000 0.375000
vt 0.625000 0.812500
vt 0.625000 0.312500
vt 0.625000 0.750000
vt 0.625000 0.250000
vt 0.593750 0.375000
vt 0.593750 0.437500
vt 0.593750 0.812500
vt 0.593750 0.875000
vt 0.593750 0.312500
vt 0.593750 0.750000
vt 0.593750 0.250000
vt 0.593750 0.687500
vt 0.593750 0.187500
vt 0.593750 0.625000
vt 0.593750 0.125000
vt 0.593750 0.562500
vt 0.593750 0.062500
vt 0.593750 0.500000
vt 0.593750 0.937500
vt 0.609375 1.000000
vt 0.609375 0.000000
vt 0.562500 0.125000
vt 0.562500 0.187500
vt 0.562500 0.562500
vt 0.562500 0.625000
vt 0.562500 0.062500
vt 0.562500 0.500000
vt 0.562500 0.937500
vt 0.578125 1.000000
vt 0.578125 0.000000
vt 0.562500 0.437500
vt 0.562500 0.875000
vt 0.562500 0.375000
vt 0.562500 0.812500
vt 0.562500 0.312500
vt 0.562500 0.750000
vt 0.562500 0.250000
vt 0.562500 0.687500
vt 0.531250 0.312500
vt 0.531250 0.375000
vt 0.531250 0.750000
vt 0.531250 0.812500
vt 0.531250 0.250000
vt 0.531250 0.687500
vt 0.531250 0.187500
vt 0.531250 0.625000
vt 0.531250 0.125000
vt 0.531250 0.562500
vt 0.531250 0.062500
vt 0.531250 0.500000
vt 0.531250 0.937500
vt 0.546875 1.000000
vt 0.546875 0.000000
vt 0.531250 0.437500
vt 0.531250 0.875000
vt 0.500000 0.062500
vt 0.500000 0.125000
vt 0.500000 0.500000
vt 0.500000 0.562500
vt 0.500000 0.937500
vt 0.515625 1.000000
vt 0.515625 0.000000
vt 0.500000 0.437500
vt 0.500000 0.875000
vt 0.500000 0.375000
vt 0.500000 0.812500
vt 0.500000 0.312500
vt 0.500000 0.750000
vt 0.500000 0.250000
vt 0.500000 0.687500
vt 0.500000 0.187500
vt 0.500000 0.625000
vt 0.468750 0.750000
vt 0.468750 0.812500
vt 0.468750 0.250000
vt 0.468750 0.312500
vt 0.468750 0.687500
vt 0.468750 0.187500
vt 0.468750 0.625000
vt 0.468750 0.125000
vt 0.468750 0.562500
vt 0.468750 0.062500
vt 0.468750 0.500000
vt 0.468750 0.937500
vt 0.484375 1.000000
vt 0.484375 0.000000
vt 0.468750 0.437500
vt 0.468750 0.875000
vt 0.468750 0.375000
vt 0.437500 0.500000
vt 0.437500 0.562500
vt 0.437500 0.937500
vt 0.453125 1.000000
vt 0.453125 0.000000
vt 0.437500 0.062500
vt 0.437500 0.437500
vt 0.437500 0.875000
vt 0.437500 0.375000
vt 0.437500 0.812500
vt 0.437500 0.312500
vt 0.437500 0.750000
vt 0.437500 0.250000
vt 0.437500 0.687500
vt 0.437500 0.187500
vt 0.437500 0.625000
vt 0.437500 0.125000
vt 0.406250 0.250000
vt 0.406250 0.312500
vt 0.406250 0.687500
vt 0.406250 0.750000
vt 0.406250 0.187500
vt 0.406250 0.625000
vt 0.406250 0.125000
vt 0.406250 0.562500
vt 0.406250 0.062500
vt 0.406250 0.500000
vt 0.406250 0.937500
vt 0.421875 1.000000
vt 0.421875 0.000000
vt 0.406250 0.437500
vt 0.406250 0.875000
vt 0.406250 0.375000
vt 0.406250 0.812500
vt 0.375000 0.937500
vt 0.390625 1.000000
vt 0.390625 0.000000
vt 0.375000 0.062500
vt 0.375000 0.437500
vt 0.375000 0.500000
vt 0.375000 0.875000
vt 0.375000 0.375000
vt 0.375000 0.812500
vt 0.375000 0.312500
vt 0.375000 0.750000
vt 0.375000 0.250000
vt 0.375000 0.687500
vt 0.375000 0.187500
vt 0.375000 0.625000
vt 0.375000 0.125000
vt 0.375000 0.562500
vt 0.343750 0.687500
vt 0.343750 0.750000
vt 0.343750 0.187500
vt 0.343750 0.250000
vt 0.343750 0.625000
vt 0.343750 0.125000
vt 0.343750 0.562500
vt 0.343750 0.062500
vt 0.343750 0.500000
vt 0.343750 0.937500
vt 0.359375 1.000000
vt 0.359375 0.000000
vt 0.343750 0.437500
vt 0.343750 0.875000
vt 0.343750 0.375000
vt 0.343750 0.812500
vt 0.343750 0.312500
vt 0.312500 0.437500
vt 0.312500 0.500000
vt 0.312500 0.875000
vt 0.312500 0.937500
vt 0.312500 0.375000
vt 0.312500 0.812500
vt 0.312500 0.312500
vt 0.312500 0.750000
vt 0.312500 0.250000
vt 0.312500 0.687500
vt 0.312500 0.187500
vt 0.312500 0.625000
vt 0.312500 0.125000
vt 0.312500 0.562500
vt 0.312500 0.062500
vt 0.328125 1.000000
vt 0.328125 0.000000
vt 0.281250 0.187500
vt 0.281250 0.250000
vt 0.281250 0.625000
vt 0.281250 0.687500
vt 0.281250 0.125000
vt 0.281250 0.562500
vt 0.281250 0.062500
vt 0.281250 0.500000
vt 0.281250 0.937500
vt 0.296875 1.000000
vt 0.296875 0.000000
vt 0.281250 0.437500
vt 0.281250 0.875000
vt 0.281250 0.375000
vt 0.281250 0.812500
vt 0.281250 0.312500
vt 0.281250 0.750000
vt 0.250000 0.375000
vt 0.250000 0.437500
vt 0.250000 0.812500
vt 0.250000 0.875000
vt 0.250000 0.312500
vt 0.250000 0.750000
vt 0.250000 0.250000
vt 0.250000 0.687500
vt 0.250000 0.187500
vt 0.250000 0.625000
vt 0.250000 0.125000
vt 0.250000 0.562500
vt 0.250000 0.062500
vt 0.250000 0.500000
vt 0.250000 0.937500
vt 0.265625 1.000000
vt 0.265625 0.000000
vt 0.218750 0.125000
vt 0.218750 0.187500
vt 0.218750 0.562500
vt 0.218750 0.625000
vt 0.218750 0.062500
vt 0.218750 0.500000
vt 0.218750 0.937500
vt 0.234375 1.000000
vt 0.234375 0.000000
vt 0.218750 0.437500
vt 0.218750 0.875000
vt 0.218750 0.375000
vt 0.218750 0.812500
vt 0.218750 0.312500
vt 0.218750 0.750000
vt 0.218750 0.250000
vt 0.218750 0.687500
vt 0.187500 0.812500
vt 0.187500 0.875000
vt 0.187500 0.312500
vt 0.187500 0.375000
vt 0.187500 0.750000
vt 0.187500 0.250000
vt 0.187500 0.687500
vt 0.187500 0.187500
vt 0.187500 0.625000
vt 0.187500 0.125000
vt 0.187500 0.562500
vt 0.187500 0.062500
vt 0.187500 0.500000
vt 0.187500 0.937500
vt 0.203125 1.000000
vt 0.203125 0.000000
vt 0.187500 0.437500
vt 0.156250 0.562500
vt 0.156250 0.625000
vt 0.156250 0.062500
vt 0.156250 0.125000
vt 0.156250 0.500000
vt 0.156250 0.937500
vt 0.171875 1.000000
vt 0.171875 0.000000
vt 0.156250 0.437500
vt 0.156250 0.875000
vt 0.156250 0.375000
vt 0.156250 0.812500
vt 0.156250 0.312500
vt 0.156250 0.750000
vt 0.156250 0.250000
vt 0.156250 0.687500
vt 0.156250 0.187500
vt 0.125000 0.312500
vt 0.125000 0.375000
vt 0.125000 0.750000
vt 0.125000 0.812500
vt 0.125000 0.250000
vt 0.125000 0.687500
vt 0.125000 0.187500
vt 0.125000 0.625000
vt 0.125000 0.125000
vt 0.125000 0.562500
vt 0.125000 0.062500
vt 0.125000 0.500000
vt 0.125000 0.937500
vt 0.140625 1.000000
vt 0.140625 0.000000
vt 0.125000 0.437500
vt 0.125000 0.875000
vt 0.093750 0.062500
vt 0.093750 0.125000
vt 0.093750 0.500000
vt 0.093750 0.562500
vt 0.093750 0.937500
vt 0.109375 1.000000
vt 0.109375 0.000000
vt 0.093750 0.437500
vt 0.093750 0.875000
vt 0.093750 0.375000
vt 0.093750 0.812500
vt 0.093750 0.312500
vt 0.093750 0.750000
vt 0.093750 0.250000
vt 0.093750 0.687500
vt 0.093750 0.187500
vt 0.093750 0.625000
vt 0.062500 0.750000
vt 0.062500 0.812500
vt 0.062500 0.250000
vt 0.062500 0.312500
vt 0.062500 0.687500
vt 0.062500 0.187500
vt 0.062500 0.625000
vt 0.062500 0.125000
vt 0.062500 0.562500
vt 0.062500 0.062500
vt 0.062500 0.500000
vt 0.062500 0.937500
vt 0.078125 1.000000
vt 0.078125 0.000000
vt 0.062500 0.437500
vt 0.062500 0.875000
vt 0.062500 0.375000
vt 0.031250 0.500000
vt 0.031250 0.562500
vt 0.031250 0.937500
vt 0.046875 1.000000
vt 0.046875 0.000000
vt 0.031250 0.062500
vt 0.031250 0.437500
vt 0.031250 0.875000
vt 0.031250 0.375000
vt 0.031250 0.812500
vt 0.031250 0.312500
vt 0.031250 0.750000
vt 0.031250 0.250000
vt 0.031250 0.687500
vt 0.031250 0.187500
vt 0.031250 0.625000
vt 0.031250 0.125000
vt 0.000000 0.250000
vt 0.000000 0.312500
vt 0.000000 0.687500
vt 0.000000 0.750000
vt 0.000000 0.187500
vt 0.000000 0.625000
vt 0.000000 0.125000
vt 0.000000 0.562500
vt 0.000000 0.062500
vt 0.000000 0.500000
vt 0.000000 0.937500
vt 0.015625 1.000000
vt 0.015625 0.000000
vt 0.000000 0.437500
vt 0.000000 0.875000
vt 0.000000 0.375000
vt 0.000000 0.812500
vt 0.984375 0.000000
vt 0.968750 0.062500
vt 1.000000 0.062500
vt 1.000000 0.437500
vt 0.968750 0.437500
vt 0.968750 0.500000
vt 1.000000 0.500000
vt 1.000000 0.875000
vt 0.968750 0.875000
vt 0.968750 0.937500
vt 1.000000 0.937500
vt 1.000000 0.375000
vt 0.968750 0.375000
vt 1.000000 0.812500
vt 0.968750 0.812500
vt 1.000000 0.312500
vt 0.968750 0.312500
vt 1.000000 0.750000
vt 0.968750 0.750000
vt 1.000000 0.250000
vt 0.968750 0.250000
vt 1.000000 0.687500
vt 0.968750 0.687500
vt 1.000000 0.187500
vt 0.968750 0.187500
vt 1.000000 0.625000
vt 0.968750 0.625000
vt 1.000000 0.125000
vt 0.968750 0.125000
vt 1.000000 0.562500
vt 0.968750 0.562500
vt 0.984375 1.000000
vt 0.937500 0.187500
vt 0.937500 0.250000
vt 0.937500 0.625000
vt 0.937500 0.687500
vt 0.937500 0.125000
vt 0.937500 0.562500
vt 0.937500 0.062500
vt 0.937500 0.500000
vt 0.937500 0.937500
vt 0.953125 1.000000
vt 0.953125 0.000000
vt 0.937500 0.437500
vt 0.937500 0.875000
vt 0.937500 0.375000
vt 0.937500 0.812500
vt 0.937500 0.312500
vt 0.937500 0.750000
vt 0.906250 0.875000
vt 0.906250 0.937500
vt 0.906250 0.375000
vt 0.906250 0.437500
vt 0.906250 0.812500
vt 0.906250 0.312500
vt 0.906250 0.750000
vt 0.906250 0.250000
vt 0.906250 0.687500
vt 0.906250 0.187500
vt 0.906250 0.625000
vt 0.906250 0.125000
vt 0.906250 0.562500
vt 0.906250 0.062500
vt 0.906250 0.500000
vt 0.921875 1.000000
vt 0.921875 0.000000
vt 0.875000 0.625000
vt 0.875000 0.687500
vt 0.875000 0.125000
vt 0.875000 0.187500
vt 0.875000 0.562500
vt 0.875000 0.062500
vt 0.875000 0.500000
vt 0.875000 0.937500
vt 0.890625 1.000000
vt 0.890625 0.000000
vt 0.875000 0.437500
vt 0.875000 0.875000
vt 0.875000 0.375000
vt 0.875000 0.812500
vt 0.875000 0.312500
vt 0.875000 0.750000
vt 0.875000 0.250000
vt 0.843750 0.375000
vt 0.843750 0.437500
vt 0.843750 0.812500
vt 0.843750 0.875000
vt 0.843750 0.312500
vt 0.843750 0.750000
vt 0.843750 0.250000
vt 0.843750 0.687500
vt 0.843750 0.187500
vt 0.843750 0.625000
vt 0.843750 0.125000
vt 0.843750 0.562500
vt 0.843750 0.062500
vt 0.843750 0.500000
vt 0.843750 0.937500
vt 0.859375 1.000000
vt 0.859375 0.000000
vt 0.812500 0.125000
vt 0.812500 0.187500
vt 0.812500 0.562500
vt 0.812500 0.625000
vt 0.812500 0.062500
vt 0.812500 0.500000
vt 0.812500 0.937500
vt 0.828125 1.000000
vt 0.828125 0.000000
vt 0.812500 0.437500
vt 0.812500 0.875000
vt 0.812500 0.375000
vt 0.812500 0.812500
vt 0.812500 0.312500
vt 0.812500 0.750000
vt 0.812500 0.250000
vt 0.812500 0.687500
vt 0.781250 0.812500
vt 0.781250 0.875000
vt 0.781250 0.312500
vt 0.781250 0.375000
vt 0.781250 0.750000
vt 0.781250 0.250000
vt 0.781250 0.687500
vt 0.781250 0.187500
vt 0.781250 0.625000
vt 0.781250 0.125000
vt 0.781250 0.562500
vt 0.781250 0.062500
vt 0.781250 0.500000
vt 0.781250 0.937500
vt 0.796875 1.000000
vt 0.796875 0.000000
vt 0.781250 0.437500
vt 0.765625 1.000000
vt 0.765625 0.000000
s 0
usemtl マテリアル
f 481/1/1 480/4/1 19/3/1 20/2/1
f 3/5/2 477/8/2 12/7/2 13/6/2
f 482/9/3 481/1/3 20/2/3 21/10/3
f 4/11/4 3/5/4 13/6/4 14/12/4
f 474/13/5 82/15/5 7/14/5
f 308/16/6 482/9/6 21/10/6
f 5/17/7 4/11/7 14/12/7 15/18/7
f 475/19/8 474/13/8 7/14/8 8/20/8
f 478/21/9 5/17/9 15/18/9 16/22/9
f 1/23/10 475/19/10 8/20/10 9/24/10
f 6/25/11 478/21/11 16/22/11 17/26/11
f 476/27/12 1/23/12 9/24/12 10/28/12
f 479/29/13 6/25/13 17/26/13 18/30/13
f 2/31/14 476/27/14 10/28/14 11/32/14
f 480/4/15 479/29/15 18/30/15 19/3/15
f 477/8/16 2/31/16 11/32/16 12/7/16
f 19/3/17 18/30/17 33/34/17 34/33/17
f 12/7/18 11/32/18 26/36/18 27/35/18
f 20/2/19 19/3/19 34/33/19 35/37/19
f 13/6/20 12/7/20 27/35/20 28/38/20
f 21/10/21 20/2/21 35/37/21 36/39/21
f 14/12/22 13/6/22 28/38/22 29/40/22
f 7/14/23 82/42/23 22/41/23
f 308/43/24 21/10/24 36/39/24
f 15/18/25 14/12/25 29/40/25 30/44/25
f 8/20/26 7/14/26 22/41/26 23/45/26
f 16/22/27 15/18/27 30/44/27 31/46/27
f 9/24/28 8/20/28 23/45/28 24/47/28
f 17/26/29 16/22/29 31/46/29 32/48/29
f 10/28/30 9/24/30 24/47/30 25/49/30
f 18/30/31 17/26/31 32/48/31 33/34/31
f 11/32/32 10/28/32 25/49/32 26/36/32
f 23/45/33 22/41/33 37/51/33 38/50/33
f 31/46/34 30/44/34 45/53/34 46/52/34
f 24/47/35 23/45/35 38/50/35 39/54/35
f 32/48/36 31/46/36 46/52/36 47/55/36
f 25/49/37 24/47/37 39/54/37 40/56/37
f 33/34/38 32/48/38 47/55/38 48/57/38
f 26/36/39 25/49/39 40/56/39 41/58/39
f 34/33/40 33/34/40 48/57/40 49/59/40
f 27/35/41 26/36/41 41/58/41 42/60/41
f 35/37/42 34/33/42 49/59/42 50/61/42
f 28/38/43 27/35/43 42/60/43 43/62/43
f 36/39/44 35/37/44 50/61/44 51/63/44
f 29/40/45 28/38/45 43/62/45 44/64/45
f 22/41/46 82/65/46 37/51/46
f 308/66/47 36/39/47 51/63/47
f 30/44/48 29/40/48 44/64/48 45/53/48
f 42/60/49 41/58/49 56/68/49 57/67/49
f 50/61/50 49/59/50 64/70/50 65/69/50
f 43/62/51 42/60/51 57/67/51 58/71/51
f 51/63/52 50/61/52 65/69/52 66/72/52
f 44/64/53 43/62/53 58/71/53 59/73/53
f 37/51/54 82/75/54 52/74/54
f 308/76/55 51/63/55 66/72/55
f 45/53/56 44/64/56 59/73/56 60/77/56
f 38/50/57 37/51/57 52/74/57 53/78/57
f 46/52/58 45/53/58 60/77/58 61/79/58
f 39/54/59 38/50/59 53/78/59 54/80/59
f 47/55/60 46/52/60 61/79/60 62/81/60
f 40/56/61 39/54/61 54/80/61 55/82/61
f 48/57/62 47/55/62 62/81/62 63/83/62
f 41/58/63 40/56/63 55/82/63 56/68/63
f 49/59/64 48/57/64 63/83/64 64/70/64
f 61/79/65 60/77/65 75/85/65 76/84/65
f 54/80/66 53/78/66 68/87/66 69/86/66
f 62/81/67 61/79/67 76/84/67 77/88/67
f 55/82/68 54/80/68 69/86/68 70/89/68
f 63/83/69 62/81/69 77/88/69 78/90/69
f 56/68/70 55/82/70 70/89/70 71/91/70
f 64/70/71 63/83/71 78/90/71 79/92/71
f 57/67/72 56/68/72 71/91/72 72/93/72
f 65/69/73 64/70/73 79/92/73 80/94/73
f 58/71/74 57/67/74 72/93/74 73/95/74
f 66/72/75 65/69/75 80/94/75 81/96/75
f 59/73/76 58/71/76 73/95/76 74/97/76
f 52/74/77 82/99/77 67/98/77
f 308/100/78 66/72/78 81/96/78
f 60/77/79 59/73/79 74/97/79 75/85/79
f 53/78/80 52/74/80 67/98/80 68/87/80
f 80/94/81 79/92/81 95/102/81 96/101/81
f 73/95/82 72/93/82 88/104/82 89/103/82
f 81/96/83 80/94/83 96/101/83 97/105/83
f 74/97/84 73/95/84 89/103/84 90/106/84
f 67/98/85 82/108/85 83/107/85
f 308/109/86 81/96/86 97/105/86
f 75/85/87 74/97/87 90/106/87 91/110/87
f 68/87/88 67/98/88 83/107/88 84/111/88
f 76/84/89 75/85/89 91/110/89 92/112/89
f 69/86/90 68/87/90 84/111/90 85/113/90
f 77/88/91 76/84/91 92/112/91 93/114/91
f 70/89/92 69/86/92 85/113/92 86/115/92
f 78/90/93 77/88/93 93/114/93 94/116/93
f 71/91/94 70/89/94 86/115/94 87/117/94
f 79/92/95 78/90/95 94/116/95 95/102/95
f 72/93/96 71/91/96 87/117/96 88/104/96
f 93/114/97 92/112/97 107/119/97 108/118/97
f 86/115/98 85/113/98 100/121/98 101/120/98
f 94/116/99 93/114/99 108/118/99 109/122/99
f 87/117/100 86/115/100 101/120/100 102/123/100
f 95/102/101 94/116/101 109/122/101 110/124/101
f 88/104/102 87/117/102 102/123/102 103/125/102
f 96/101/103 95/102/103 110/124/103 111/126/103
f 89/103/104 88/104/104 103/125/104 104/127/104
f 97/105/105 96/101/105 111/126/105 112/128/105
f 90/106/106 89/103/106 104/127/106 105/129/106
f 83/107/107 82/131/107 98/130/107
f 308/132/108 97/105/108 112/128/108
f 91/110/109 90/106/109 105/129/109 106/133/109
f 84/111/110 83/107/110 98/130/110 99/134/110
f 92/112/111 91/110/111 106/133/111 107/119/111
f 85/113/112 84/111/112 99/134/112 100/121/112
f 112/128/113 111/126/113 126/136/113 127/135/113
f 105/129/114 104/127/114 119/138/114 120/137/114
f 98/130/115 82/140/115 113/139/115
f 308/141/116 112/128/116 127/135/116
f 106/133/117 105/129/117 120/137/117 121/142/117
f 99/134/118 98/130/118 113/139/118 114/143/118
f 107/119/119 106/133/119 121/142/119 122/144/119
f 100/121/120 99/134/120 114/143/120 115/145/120
f 108/118/121 107/119/121 122/144/121 123/146/121
f 101/120/122 100/121/122 115/145/122 116/147/122
f 109/122/123 108/118/123 123/146/123 124/148/123
f 102/123/124 101/120/124 116/147/124 117/149/124
f 110/124/125 109/122/125 124/148/125 125/150/125
f 103/125/126 102/123/126 117/149/126 118/151/126
f 111/126/127 110/124/127 125/150/127 126/136/127
f 104/127/128 103/125/128 118/151/128 119/138/128
f 116/147/129 115/145/129 130/153/129 131/152/129
f 124/148/130 123/146/130 138/155/130 139/154/130
f 117/149/131 116/147/131 131/152/131 132/156/131
f 125/150/132 124/148/132 139/154/132 140/157/132
f 118/151/133 117/149/133 132/156/133 133/158/133
f 126/136/134 125/150/134 140/157/134 141/159/134
f 119/138/135 118/151/135 133/158/135 134/160/135
f 127/135/136 126/136/136 141/159/136 142/161/136
f 120/137/137 119/138/137 134/160/137 135/162/137
f 113/139/138 82/164/138 128/163/138
f 308/165/139 127/135/139 142/161/139
f 121/142/140 120/137/140 135/162/140 136/166/140
f 114/143/141 113/139/141 128/163/141 129/167/141
f 122/144/142 121/142/142 136/166/142 137/168/142
f 115/145/143 114/143/143 129/167/143 130/153/143
f 123/146/144 122/144/144 137/168/144 138/155/144
f 135/162/145 134/160/145 149/170/145 150/169/145
f 128/163/146 82/172/146 143/171/146
f 308/173/147 142/161/147 157/174/147
f 136/166/148 135/162/148 150/169/148 151/175/148
f 129/167/149 128/163/149 143/171/149 144/176/149
f 137/168/150 136/166/150 151/175/150 152/177/150
f 130/153/151 129/167/151 144/176/151 145/178/151
f 138/155/152 137/168/152 152/177/152 153/179/152
f 131/152/153 130/153/153 145/178/153 146/180/153
f 139/154/154 138/155/154 153/179/154 154/181/154
f 132/156/155 131/152/155 146/180/155 147/182/155
f 140/157/156 139/154/156 154/181/156 155/183/156
f 133/158/157 132/156/157 147/182/157 148/184/157
f 141/159/158 140/157/158 155/183/158 156/185/158
f 134/160/159 133/158/159 148/184/159 149/170/159
f 142/161/160 141/159/160 156/185/160 157/174/160
f 154/181/161 153/179/161 168/187/161 169/186/161
f 147/182/162 146/180/162 161/189/162 162/188/162
f 155/183/163 154/181/163 169/186/163 170/190/163
f 148/184/164 147/182/164 162/188/164 163/191/164
f 156/185/165 155/183/165 170/190/165 171/192/165
f 149/170/166 148/184/166 163/191/166 164/193/166
f 157/174/167 156/185/167 171/192/167 172/194/167
f 150/169/168 149/170/168 164/193/168 165/195/168
f 143/171/169 82/197/169 158/196/169
f 308/198/170 157/174/170 172/194/170
f 151/175/171 150/169/171 165/195/171 166/199/171
f 144/176/172 143/171/172 158/196/172 159/200/172
f 152/177/173 151/175/173 166/199/173 167/201/173
f 145/178/174 144/176/174 159/200/174 160/202/174
f 153/179/175 152/177/175 167/201/175 168/187/175
f 146/180/176 145/178/176 160/202/176 161/189/176
f 158/196/177 82/204/177 173/203/177
f 308/205/178 172/194/178 187/206/178
f 166/199/179 165/195/179 180/208/179 181/207/179
f 159/200/180 158/196/180 173/203/180 174/209/180
f 167/201/181 166/199/181 181/207/181 182/210/181
f 160/202/182 159/200/182 174/209/182 175/211/182
f 168/187/183 167/201/183 182/210/183 183/212/183
f 161/189/184 160/202/184 175/211/184 176/213/184
f 169/186/185 168/187/185 183/212/185 184/214/185
f 162/188/186 161/189/186 176/213/186 177/215/186
f 170/190/187 169/186/187 184/214/187 185/216/187
f 163/191/188 162/188/188 177/215/188 178/217/188
f 171/192/189 170/190/189 185/216/189 186/218/189
f 164/193/190 163/191/190 178/217/190 179/219/190
f 172/194/191 171/192/191 186/218/191 187/206/191
f 165/195/192 164/193/192 179/219/192 180/208/192
f 177/215/193 176/213/193 191/221/193 192/220/193
f 185/216/194 184/214/194 199/223/194 200/222/194
f 178/217/195 177/215/195 192/220/195 193/224/195
f 186/218/196 185/216/196 200/222/196 201/225/196
f 179/219/197 178/217/197 193/224/197 194/226/197
f 187/206/198 186/218/198 201/225/198 202/227/198
f 180/208/199 179/219/199 194/226/199 195/228/199
f 173/203/200 82/230/200 188/229/200
f 308/231/201 187/206/201 202/227/201
f 181/207/202 180/208/202 195/228/202 196/232/202
f 174/209/203 173/203/203 188/229/203 189/233/203
f 182/210/204 181/207/204 196/232/204 197/234/204
f 175/211/205 174/209/205 189/233/205 190/235/205
f 183/212/206 182/210/206 197/234/206 198/236/206
f 176/213/207 175/211/207 190/235/207 191/221/207
f 184/214/208 183/212/208 198/236/208 199/223/208
f 196/232/209 195/228/209 210/238/209 211/237/209
f 189/233/210 188/229/210 203/240/210 204/239/210
f 197/234/211 196/232/211 211/237/211 212/241/211
f 190/235/212 189/233/212 204/239/212 205/242/212
f 198/236/213 197/234/213 212/241/213 213/243/213
f 191/221/214 190/235/214 205/242/214 206/244/214
f 199/223/215 198/236/215 213/243/215 214/245/215
f 192/220/216 191/221/216 206/244/216 207/246/216
f 200/222/217 199/223/217 214/245/217 215/247/217
f 193/224/218 192/220/218 207/246/218 208/248/218
f 201/225/219 200/222/219 215/247/219 216/249/219
f 194/226/220 193/224/220 208/248/220 209/250/220
f 202/227/221 201/225/221 216/249/221 217/251/221
f 195/228/222 194/226/222 209/250/222 210/238/222
f 188/229/223 82/252/223 203/240/223
f 308/253/224 202/227/224 217/251/224
f 215/247/225 214/245/225 229/255/225 230/254/225
f 208/248/226 207/246/226 222/257/226 223/256/226
f 216/249/227 215/247/227 230/254/227 231/258/227
f 209/250/228 208/248/228 223/256/228 224/259/228
f 217/251/229 216/249/229 231/258/229 232/260/229
f 210/238/230 209/250/230 224/259/230 225/261/230
f 203/240/231 82/263/231 218/262/231
f 308/264/232 217/251/232 232/260/232
f 211/237/233 210/238/233 225/261/233 226/265/233
f 204/239/234 203/240/234 218/262/234 219/266/234
f 212/241/235 211/237/235 226/265/235 227/267/235
f 205/242/236 204/239/236 219/266/236 220/268/236
f 213/243/237 212/241/237 227/267/237 228/269/237
f 206/244/238 205/242/238 220/268/238 221/270/238
f 214/245/239 213/243/239 228/269/239 229/255/239
f 207/246/240 206/244/240 221/270/240 222/257/240
f 227/267/241 226/265/241 241/272/241 242/271/241
f 220/268/242 219/266/242 234/274/242 235/273/242
f 228/269/243 227/267/243 242/271/243 243/275/243
f 221/270/244 220/268/244 235/273/244 236/276/244
f 229/255/245 228/269/245 243/275/245 244/277/245
f 222/257/246 221/270/246 236/276/246 237/278/246
f 230/254/247 229/255/247 244/277/247 245/279/247
f 223/256/248 222/257/248 237/278/248 238/280/248
f 231/258/249 230/254/249 245/279/249 246/281/249
f 224/259/250 223/256/250 238/280/250 239/282/250
f 232/260/251 231/258/251 246/281/251 247/283/251
f 225/261/252 224/259/252 239/282/252 240/284/252
f 218/262/253 82/286/253 233/285/253
f 308/287/254 232/260/254 247/283/254
f 226/265/255 225/261/255 240/284/255 241/272/255
f 219/266/256 218/262/256 233/285/256 234/274/256
f 246/281/257 245/279/257 260/289/257 261/288/257
f 239/282/258 238/280/258 253/291/258 254/290/258
f 247/283/259 246/281/259 261/288/259 262/292/259
f 240/284/260 239/282/260 254/290/260 255/293/260
f 233/285/261 82/295/261 248/294/261
f 308/296/262 247/283/262 262/292/262
f 241/272/263 240/284/263 255/293/263 256/297/263
f 234/274/264 233/285/264 248/294/264 249/298/264
f 242/271/265 241/272/265 256/297/265 257/299/265
f 235/273/266 234/274/266 249/298/266 250/300/266
f 243/275/267 242/271/267 257/299/267 258/301/267
f 236/276/268 235/273/268 250/300/268 251/302/268
f 244/277/269 243/275/269 258/301/269 259/303/269
f 237/278/270 236/276/270 251/302/270 252/304/270
f 245/279/271 244/277/271 259/303/271 260/289/271
f 238/280/272 237/278/272 252/304/272 253/291/272
f 250/300/273 249/298/273 264/306/273 265/305/273
f 258/301/274 257/299/274 272/308/274 273/307/274
f 251/302/275 250/300/275 265/305/275 266/309/275
f 259/303/276 258/301/276 273/307/276 274/310/276
f 252/304/277 251/302/277 266/309/277 267/311/277
f 260/289/278 259/303/278 274/310/278 275/312/278
f 253/291/279 252/304/279 267/311/279 268/313/279
f 261/288/280 260/289/280 275/312/280 276/314/280
f 254/290/281 253/291/281 268/313/281 269/315/281
f 262/292/282 261/288/282 276/314/282 277/316/282
f 255/293/283 254/290/283 269/315/283 270/317/283
f 248/294/284 82/319/284 263/318/284
f 308/320/285 262/292/285 277/316/285
f 256/297/286 255/293/286 270/317/286 271/321/286
f 249/298/287 248/294/287 263/318/287 264/306/287
f 257/299/288 256/297/288 271/321/288 272/308/288
f 269/315/289 268/313/289 283/323/289 284/322/289
f 277/316/290 276/314/290 291/325/290 292/324/290
f 270/317/291 269/315/291 284/322/291 285/326/291
f 263/318/292 82/328/292 278/327/292
f 308/329/293 277/316/293 292/324/293
f 271/321/294 270/317/294 285/326/294 286/330/294
f 264/306/295 263/318/295 278/327/295 279/331/295
f 272/308/296 271/321/296 286/330/296 287/332/296
f 265/305/297 264/306/297 279/331/297 280/333/297
f 273/307/298 272/308/298 287/332/298 288/334/298
f 266/309/299 265/305/299 280/333/299 281/335/299
f 274/310/300 273/307/300 288/334/300 289/336/300
f 267/311/301 266/309/301 281/335/301 282/337/301
f 275/312/302 274/310/302 289/336/302 290/338/302
f 268/313/303 267/311/303 282/337/303 283/323/303
f 276/314/304 275/312/304 290/338/304 291/325/304
f 288/334/305 287/332/305 302/340/305 303/339/305
f 281/335/306 280/333/306 295/342/306 296/341/306
f 289/336/307 288/334/307 303/339/307 304/343/307
f 282/337/308 281/335/308 296/341/308 297/344/308
f 290/338/309 289/336/309 304/343/309 305/345/309
f 283/323/310 282/337/310 297/344/310 298/346/310
f 291/325/311 290/338/311 305/345/311 306/347/311
f 284/322/312 283/323/312 298/346/312 299/348/312
f 292/324/313 291/325/313 306/347/313 307/349/313
f 285/326/314 284/322/314 299/348/314 300/350/314
f 278/327/315 82/352/315 293/351/315
f 308/353/316 292/324/316 307/349/316
f 286/330/317 285/326/317 300/350/317 301/354/317
f 279/331/318 278/327/318 293/351/318 294/355/318
f 287/332/319 286/330/319 301/354/319 302/340/319
f 280/333/320 279/331/320 294/355/320 295/342/320
f 307/349/321 306/347/321 322/357/321 323/356/321
f 300/350/322 299/348/322 315/359/322 316/358/322
f 293/351/323 82/361/323 309/360/323
f 308/362/324 307/349/324 323/356/324
f 301/354/325 300/350/325 316/358/325 317/363/325
f 294/355/326 293/351/326 309/360/326 310/364/326
f 302/340/327 301/354/327 317/363/327 318/365/327
f 295/342/328 294/355/328 310/364/328 311/366/328
f 303/339/329 302/340/329 318/365/329 319/367/329
f 296/341/330 295/342/330 311/366/330 312/368/330
f 304/343/331 303/339/331 319/367/331 320/369/331
f 297/344/332 296/341/332 312/368/332 313/370/332
f 305/345/333 304/343/333 320/369/333 321/371/333
f 298/346/334 297/344/334 313/370/334 314/372/334
f 306/347/335 305/345/335 321/371/335 322/357/335
f 299/348/336 298/346/336 314/372/336 315/359/336
f 312/368/337 311/366/337 326/374/337 327/373/337
f 320/369/338 319/367/338 334/376/338 335/375/338
f 313/370/339 312/368/339 327/373/339 328/377/339
f 321/371/340 320/369/340 335/375/340 336/378/340
f 314/372/341 313/370/341 328/377/341 329/379/341
f 322/357/342 321/371/342 336/378/342 337/380/342
f 315/359/343 314/372/343 329/379/343 330/381/343
f 323/356/344 322/357/344 337/380/344 338/382/344
f 316/358/345 315/359/345 330/381/345 331/383/345
f 309/360/346 82/385/346 324/384/346
f 308/386/347 323/356/347 338/382/347
f 317/363/348 316/358/348 331/383/348 332/387/348
f 310/364/349 309/360/349 324/384/349 325/388/349
f 318/365/350 317/363/350 332/387/350 333/389/350
f 311/366/351 310/364/351 325/388/351 326/374/351
f 319/367/352 318/365/352 333/389/352 334/376/352
f 331/383/353 330/381/353 345/391/353 346/390/353
f 324/384/354 82/393/354 339/392/354
f 308/394/355 338/382/355 353/395/355
f 332/387/356 331/383/356 346/390/356 347/396/356
f 325/388/357 324/384/357 339/392/357 340/397/357
f 333/389/358 332/387/358 347/396/358 348/398/358
f 326/374/359 325/388/359 340/397/359 341/399/359
f 334/376/360 333/389/360 348/398/360 349/400/360
f 327/373/361 326/374/361 341/399/361 342/401/361
f 335/375/362 334/376/362 349/400/362 350/402/362
f 328/377/363 327/373/363 342/401/363 343/403/363
f 336/378/364 335/375/364 350/402/364 351/404/364
f 329/379/365 328/377/365 343/403/365 344/405/365
f 337/380/366 336/378/366 351/404/366 352/406/366
f 330/381/367 329/379/367 344/405/367 345/391/367
f 338/382/368 337/380/368 352/406/368 353/395/368
f 350/402/369 349/400/369 364/408/369 365/407/369
f 343/403/370 342/401/370 357/410/370 358/409/370
f 351/404/371 350/402/371 365/407/371 366/411/371
f 344/405/372 343/403/372 358/409/372 359/412/372
f 352/406/373 351/404/373 366/411/373 367/413/373
f 345/391/374 344/405/374 359/412/374 360/414/374
f 353/395/375 352/406/375 367/413/375 368/415/375
f 346/390/376 345/391/376 360/414/376 361/416/376
f 339/392/377 82/418/377 354/417/377
f 308/419/378 353/395/378 368/415/378
f 347/396/379 346/390/379 361/416/379 362/420/379
f 340/397/380 339/392/380 354/417/380 355/421/380
f 348/398/381 347/396/381 362/420/381 363/422/381
f 341/399/382 340/397/382 355/421/382 356/423/382
f 349/400/383 348/398/383 363/422/383 364/408/383
f 342/401/384 341/399/384 356/423/384 357/410/384
f 308/424/385 368/426/385 383/425/385
f 362/427/386 361/430/386 376/429/386 377/428/386
f 355/431/387 354/434/387 369/433/387 370/432/387
f 363/435/388 362/427/388 377/428/388 378/436/388
f 356/437/389 355/431/389 370/432/389 371/438/389
f 364/439/390 363/435/390 378/436/390 379/440/390
f 357/441/391 356/437/391 371/438/391 372/442/391
f 365/443/392 364/439/392 379/440/392 380/444/392
f 358/445/393 357/441/393 372/442/393 373/446/393
f 366/447/394 365/443/394 380/444/394 381/448/394
f 359/449/395 358/445/395 373/446/395 374/450/395
f 367/451/396 366/447/396 381/448/396 382/452/396
f 360/453/397 359/449/397 374/450/397 375/454/397
f 368/426/398 367/451/398 382/452/398 383/425/398
f 361/430/399 360/453/399 375/454/399 376/429/399
f 354/434/400 82/455/400 369/433/400
f 381/448/401 380/444/401 395/457/401 396/456/401
f 374/450/402 373/446/402 388/459/402 389/458/402
f 382/452/403 381/448/403 396/456/403 397/460/403
f 375/454/404 374/450/404 389/458/404 390/461/404
f 383/425/405 382/452/405 397/460/405 398/462/405
f 376/429/406 375/454/406 390/461/406 391/463/406
f 369/433/407 82/465/407 384/464/407
f 308/466/408 383/425/408 398/462/408
f 377/428/409 376/429/409 391/463/409 392/467/409
f 370/432/410 369/433/410 384/464/410 385/468/410
f 378/436/411 377/428/411 392/467/411 393/469/411
f 371/438/412 370/432/412 385/468/412 386/470/412
f 379/440/413 378/436/413 393/469/413 394/471/413
f 372/442/414 371/438/414 386/470/414 387/472/414
f 380/444/415 379/440/415 394/471/415 395/457/415
f 373/446/416 372/442/416 387/472/416 388/459/416
f 385/468/417 384/464/417 399/474/417 400/473/417
f 393/469/418 392/467/418 407/476/418 408/475/418
f 386/470/419 385/468/419 400/473/419 401/477/419
f 394/471/420 393/469/420 408/475/420 409/478/420
f 387/472/421 386/470/421 401/477/421 402/479/421
f 395/457/422 394/471/422 409/478/422 410/480/422
f 388/459/423 387/472/423 402/479/423 403/481/423
f 396/456/424 395/457/424 410/480/424 411/482/424
f 389/458/425 388/459/425 403/481/425 404/483/425
f 397/460/426 396/456/426 411/482/426 412/484/426
f 390/461/427 389/458/427 404/483/427 405/485/427
f 398/462/428 397/460/428 412/484/428 413/486/428
f 391/463/429 390/461/429 405/485/429 406/487/429
f 384/464/430 82/488/430 399/474/430
f 308/489/431 398/462/431 413/486/431
f 392/467/432 391/463/432 406/487/432 407/476/432
f 404/483/433 403/481/433 418/491/433 419/490/433
f 412/484/434 411/482/434 426/493/434 427/492/434
f 405/485/435 404/483/435 419/490/435 420/494/435
f 413/486/436 412/484/436 427/492/436 428/495/436
f 406/487/437 405/485/437 420/494/437 421/496/437
f 399/474/438 82/498/438 414/497/438
f 308/499/439 413/486/439 428/495/439
f 407/476/440 406/487/440 421/496/440 422/500/440
f 400/473/441 399/474/441 414/497/441 415/501/441
f 408/475/442 407/476/442 422/500/442 423/502/442
f 401/477/443 400/473/443 415/501/443 416/503/443
f 409/478/444 408/475/444 423/502/444 424/504/444
f 402/479/445 401/477/445 416/503/445 417/505/445
f 410/480/446 409/478/446 424/504/446 425/506/446
f 403/481/447 402/479/447 417/505/447 418/491/447
f 411/482/448 410/480/448 425/506/448 426/493/448
f 423/502/449 422/500/449 437/508/449 438/507/449
f 416/503/450 415/501/450 430/510/450 431/509/450
f 424/504/451 423/502/451 438/507/451 439/511/451
f 417/505/452 416/503/452 431/509/452 432/512/452
f 425/506/453 424/504/453 439/511/453 440/513/453
f 418/491/454 417/505/454 432/512/454 433/514/454
f 426/493/455 425/506/455 440/513/455 441/515/455
f 419/490/456 418/491/456 433/514/456 434/516/456
f 427/492/457 426/493/457 441/515/457 442/517/457
f 420/494/458 419/490/458 434/516/458 435/518/458
f 428/495/459 427/492/459 442/517/459 443/519/459
f 421/496/460 420/494/460 435/518/460 436/520/460
f 414/497/461 82/522/461 429/521/461
f 308/523/462 428/495/462 443/519/462
f 422/500/463 421/496/463 436/520/463 437/508/463
f 415/501/464 414/497/464 429/521/464 430/510/464
f 442/517/465 441/515/465 456/525/465 457/524/465
f 435/518/466 434/516/466 449/527/466 450/526/466
f 443/519/467 442/517/467 457/524/467 458/528/467
f 436/520/468 435/518/468 450/526/468 451/529/468
f 429/521/469 82/531/469 444/530/469
f 308/532/470 443/519/470 458/528/470
f 437/508/471 436/520/471 451/529/471 452/533/471
f 430/510/472 429/521/472 444/530/472 445/534/472
f 438/507/473 437/508/473 452/533/473 453/535/473
f 431/509/474 430/510/474 445/534/474 446/536/474
f 439/511/475 438/507/475 453/535/475 454/537/475
f 432/512/476 431/509/476 446/536/476 447/538/476
f 440/513/477 439/511/477 454/537/477 455/539/477
f 433/514/478 432/512/478 447/538/478 448/540/478
f 441/515/479 440/513/479 455/539/479 456/525/479
f 434/516/480 433/514/480 448/540/480 449/527/480
f 446/536/481 445/534/481 460/542/481 461/541/481
f 454/537/482 453/535/482 468/544/482 469/543/482
f 447/538/483 446/536/483 461/541/483 462/545/483
f 455/539/484 454/537/484 469/543/484 470/546/484
f 448/540/485 447/538/485 462/545/485 463/547/485
f 456/525/486 455/539/486 470/546/486 471/548/486
f 449/527/487 448/540/487 463/547/487 464/549/487
f 457/524/488 456/525/488 471/548/488 472/550/488
f 450/526/489 449/527/489 464/549/489 465/551/489
f 458/528/490 457/524/490 472/550/490 473/552/490
f 451/529/491 450/526/491 465/551/491 466/553/491
f 444/530/492 82/555/492 459/554/492
f 308/556/493 458/528/493 473/552/493
f 452/533/494 451/529/494 466/553/494 467/557/494
f 445/534/495 444/530/495 459/554/495 460/542/495
f 453/535/496 452/533/496 467/557/496 468/544/496
f 465/551/497 464/549/497 477/8/497 3/5/497
f 473/552/498 472/550/498 481/1/498 482/9/498
f 466/553/499 465/551/499 3/5/499 4/11/499
f 459/554/500 82/558/500 474/13/500
f 308/559/501 473/552/501 482/9/501
f 467/557/502 466/553/502 4/11/502 5/17/502
f 460/542/503 459/554/503 474/13/503 475/19/503
f 468/544/504 467/557/504 5/17/504 478/21/504
f 461/541/505 460/542/505 475/19/505 1/23/505
f 469/543/506 468/544/506 478/21/506 6/25/506
f 462/545/507 461/541/507 1/23/507 476/27/507
f 470/546/508 469/543/508 6/25/508 479/29/508
f 463/547/509 462/545/509 476/27/509 2/31/509
f 471/548/510 470/546/510 479/29/510 480/4/510
f 464/549/511 463/547/511 2/31/511 477/8/511
f 472/550/512 471/548/512 480/4/512 481/1/512
